Chivo-Regular.ufo
<glyph name="exclam" format="1">
  <advance width="269"/>
  <unicode hex="0021"/>
  <outline>
    <contour>
      <point x="78" y="686" type="line"/>
      <point x="78" y="174" type="line"/>
      <point x="168" y="174" type="line"/>
      <point x="183" y="500"/>
      <point x="191" y="671"/>
      <point x="193" y="686" type="curve"/>
    </contour>
    <contour>
      <point x="85" y="111" type="line"/>
      <point x="85" y="0" type="line"/>
      <point x="186" y="0" type="line"/>
      <point x="186" y="111" type="line"/>
    </contour>
  </outline>
</glyph>
<glyph name="quotedbl" format="1">
  <advance width="364"/>
  <unicode hex="0022"/>
  <outline>
    <contour>
      <point x="218" y="686" type="line"/>
      <point x="218" y="539" type="line"/>
      <point x="239" y="407" type="line"/>
      <point x="278" y="407" type="line"/>
      <point x="283" y="442"/>
      <point x="291" y="486"/>
      <point x="300" y="539" type="curve"/>
      <point x="300" y="686" type="line"/>
    </contour>
    <contour>
      <point x="64" y="686" type="line"/>
      <point x="64" y="539" type="line"/>
      <point x="86" y="407" type="line"/>
      <point x="125" y="407" type="line"/>
      <point x="146" y="539" type="line"/>
      <point x="146" y="686" type="line"/>
    </contour>
  </outline>
</glyph>
<glyph name="dollar" format="1">
  <advance width="546"/>
  <unicode hex="0024"/>
  <outline>
    <contour>
      <point x="234" y="760" type="line"/>
      <point x="245" y="671" type="line"/>
      <point x="132" y="663"/>
      <point x="46" y="614"/>
      <point x="46" y="490" type="curve" smooth="yes"/>
      <point x="46" y="269"/>
      <point x="420" y="354"/>
      <point x="420" y="202" type="curve" smooth="yes"/>
      <point x="420" y="137"/>
      <point x="369" y="105"/>
      <point x="268" y="105" type="curve" smooth="yes"/>
      <point x="185" y="105"/>
      <point x="126" y="137"/>
      <point x="126" y="208" type="curve"/>
      <point x="127" y="227" type="line"/>
      <point x="32" y="227" type="line"/>
      <point x="31" y="209" type="line"/>
      <point x="31" y="92"/>
      <point x="107" y="29"/>
      <point x="244" y="20" type="curve"/>
      <point x="234" y="-66" type="line"/>
      <point x="307" y="-66" type="line"/>
      <point x="296" y="19" type="line"/>
      <point x="438" y="25"/>
      <point x="514" y="93"/>
      <point x="514" y="216" type="curve" smooth="yes"/>
      <point x="514" y="443"/>
      <point x="141" y="363"/>
      <point x="141" y="505" type="curve" smooth="yes"/>
      <point x="141" y="561"/>
      <point x="199" y="586"/>
      <point x="274" y="586" type="curve" smooth="yes"/>
      <point x="349" y="586"/>
      <point x="403" y="556"/>
      <point x="403" y="497" type="curve" smooth="yes"/>
      <point x="403" y="483" type="line"/>
      <point x="498" y="483" type="line"/>
      <point x="498" y="495" type="line" smooth="yes"/>
      <point x="498" y="606"/>
      <point x="416" y="665"/>
      <point x="296" y="671" type="curve"/>
      <point x="307" y="760" type="line"/>
    </contour>
  </outline>
</glyph>
<glyph name="asterisk" format="1">
  <advance width="468"/>
  <unicode hex="002A"/>
  <outline>
    <contour>
      <point x="196" y="686" type="line"/>
      <point x="209" y="520" type="line"/>
      <point x="54" y="586" type="line"/>
      <point x="29" y="509" type="line"/>
      <point x="192" y="469" type="line"/>
      <point x="81" y="344" type="line"/>
      <point x="145" y="296" type="line"/>
      <point x="232" y="438" type="line"/>
      <point x="320" y="294" type="line"/>
      <point x="384" y="343" type="line"/>
      <point x="275" y="468" type="line"/>
      <point x="440" y="506" type="line"/>
      <point x="417" y="584" type="line"/>
      <point x="259" y="519" type="line"/>
      <point x="275" y="686" type="line"/>
    </contour>
  </outline>
</glyph>
<glyph name="comma" format="1">
  <advance width="238"/>
  <unicode hex="002C"/>
  <outline>
    <contour>
      <point x="69" y="111" type="line"/>
      <point x="69" y="0" type="line"/>
      <point x="110" y="0" type="line"/>
      <point x="83" y="-124" type="line"/>
      <point x="135" y="-124" type="line"/>
      <point x="170" y="26" type="line"/>
      <point x="170" y="111" type="line"/>
    </contour>
  </outline>
</glyph>
<glyph name="slash" format="1">
  <advance width="600"/>
  <unicode hex="002F"/>
  <outline>
    <contour>
      <point x="505" y="686" type="line"/>
      <point x="15" y="-171" type="line"/>
      <point x="96" y="-171" type="line"/>
      <point x="585" y="686" type="line"/>
    </contour>
  </outline>
</glyph>
<glyph name="one" format="1">
  <advance width="615"/>
  <unicode hex="0031"/>
  <outline>
    <contour>
      <point x="339" y="686" type="line"/>
      <point x="256" y="649"/>
      <point x="175" y="627"/>
      <point x="97" y="619" type="curve"/>
      <point x="97" y="555" type="line"/>
      <point x="279" y="555" type="line"/>
      <point x="279" y="89" type="line"/>
      <point x="99" y="89" type="line"/>
      <point x="99" y="0" type="line"/>
      <point x="557" y="0" type="line"/>
      <point x="557" y="89" type="line"/>
      <point x="377" y="89" type="line"/>
      <point x="377" y="686" type="line"/>
    </contour>
  </outline>
</glyph>
<glyph name="two" format="1">
  <advance width="615"/>
  <unicode hex="0032"/>
  <outline>
    <contour>
      <point x="139" y="696"/>
      <point x="70" y="576"/>
      <point x="70" y="467" type="curve" smooth="yes"/>
      <point x="70" y="459" type="line" smooth="yes"/>
      <point x="70" y="457"/>
      <point x="70" y="454"/>
      <point x="71" y="449" type="curve"/>
      <point x="169" y="449" type="line"/>
      <point x="168" y="453"/>
      <point x="168" y="457"/>
      <point x="168" y="461" type="curve" smooth="yes"/>
      <point x="168" y="475" type="line" smooth="yes"/>
      <point x="168" y="547"/>
      <point x="225" y="607"/>
      <point x="311" y="607" type="curve" smooth="yes"/>
      <point x="396" y="607"/>
      <point x="440" y="548"/>
      <point x="440" y="491" type="curve" smooth="yes"/>
      <point x="440" y="439"/>
      <point x="420" y="397"/>
      <point x="362" y="351" type="curve"/>
      <point x="163" y="201" type="line" smooth="yes"/>
      <point x="104" y="157"/>
      <point x="70" y="92"/>
      <point x="70" y="24" type="curve" smooth="yes"/>
      <point x="70" y="0" type="line"/>
      <point x="541" y="0" type="line"/>
      <point x="541" y="89" type="line"/>
      <point x="177" y="89" type="line"/>
      <point x="177" y="96"/>
      <point x="192" y="113"/>
      <point x="225" y="136" type="curve"/>
      <point x="416" y="282" type="line" smooth="yes"/>
      <point x="493" y="341"/>
      <point x="538" y="392"/>
      <point x="538" y="495" type="curve" smooth="yes"/>
      <point x="538" y="592"/>
      <point x="467" y="696"/>
      <point x="316" y="696" type="curve" smooth="yes"/>
    </contour>
  </outline>
</glyph>
<glyph name="three" format="1">
  <advance width="615"/>
  <unicode hex="0033"/>
  <outline>
    <contour>
      <point x="299" y="696" type="line" smooth="yes"/>
      <point x="173" y="696"/>
      <point x="74" y="623"/>
      <point x="74" y="510" type="curve" smooth="yes"/>
      <point x="74" y="492" type="line"/>
      <point x="172" y="492" type="line"/>
      <point x="172" y="501" type="line" smooth="yes"/>
      <point x="172" y="570"/>
      <point x="225" y="607"/>
      <point x="299" y="607" type="curve" smooth="yes"/>
      <point x="378" y="607"/>
      <point x="433" y="572"/>
      <point x="433" y="502" type="curve" smooth="yes"/>
      <point x="433" y="430"/>
      <point x="375" y="394"/>
      <point x="297" y="394" type="curve" smooth="yes"/>
      <point x="220" y="394" type="line"/>
      <point x="220" y="304" type="line"/>
      <point x="295" y="304" type="line" smooth="yes"/>
      <point x="399" y="304"/>
      <point x="449" y="266"/>
      <point x="449" y="194" type="curve" smooth="yes"/>
      <point x="449" y="115"/>
      <point x="390" y="79"/>
      <point x="299" y="79" type="curve" smooth="yes"/>
      <point x="207" y="79"/>
      <point x="156" y="118"/>
      <point x="156" y="191" type="curve" smooth="yes"/>
      <point x="156" y="202" type="line"/>
      <point x="58" y="202" type="line"/>
      <point x="58" y="194" type="line" smooth="yes"/>
      <point x="58" y="67"/>
      <point x="152" y="-10"/>
      <point x="296" y="-10" type="curve" smooth="yes"/>
      <point x="308" y="-10" type="line" smooth="yes"/>
      <point x="444" y="-10"/>
      <point x="547" y="70"/>
      <point x="547" y="184" type="curve" smooth="yes"/>
      <point x="547" y="276"/>
      <point x="495" y="330"/>
      <point x="423" y="353" type="curve"/>
      <point x="422" y="356" type="line"/>
      <point x="485" y="385"/>
      <point x="531" y="429"/>
      <point x="531" y="510" type="curve" smooth="yes"/>
      <point x="531" y="617"/>
      <point x="441" y="696"/>
      <point x="308" y="696" type="curve" smooth="yes"/>
    </contour>
  </outline>
</glyph>
<glyph name="six" format="1">
  <advance width="615"/>
  <unicode hex="0036"/>
  <outline>
    <contour>
      <point x="183" y="696"/>
      <point x="79" y="592"/>
      <point x="79" y="465" type="curve" smooth="yes"/>
      <point x="79" y="223" type="line" smooth="yes"/>
      <point x="79" y="86"/>
      <point x="179" y="-10"/>
      <point x="316" y="-10" type="curve" smooth="yes"/>
      <point x="454" y="-10"/>
      <point x="552" y="83"/>
      <point x="552" y="221" type="curve" smooth="yes"/>
      <point x="552" y="339"/>
      <point x="453" y="432"/>
      <point x="332" y="432" type="curve" smooth="yes"/>
      <point x="270" y="432"/>
      <point x="218" y="410"/>
      <point x="177" y="366" type="curve"/>
      <point x="177" y="474" type="line" smooth="yes"/>
      <point x="177" y="547"/>
      <point x="237" y="607"/>
      <point x="310" y="607" type="curve" smooth="yes"/>
      <point x="390" y="607"/>
      <point x="443" y="557"/>
      <point x="443" y="473" type="curve"/>
      <point x="541" y="473" type="line"/>
      <point x="541" y="607"/>
      <point x="446" y="696"/>
      <point x="310" y="696" type="curve" smooth="yes"/>
    </contour>
    <contour>
      <point x="393" y="343"/>
      <point x="454" y="291"/>
      <point x="454" y="211" type="curve" smooth="yes"/>
      <point x="454" y="131"/>
      <point x="393" y="79"/>
      <point x="316" y="79" type="curve" smooth="yes"/>
      <point x="237" y="79"/>
      <point x="177" y="135"/>
      <point x="177" y="211" type="curve" smooth="yes"/>
      <point x="177" y="287"/>
      <point x="237" y="343"/>
      <point x="316" y="343" type="curve" smooth="yes"/>
    </contour>
  </outline>
</glyph>
<glyph name="eight" format="1">
  <advance width="615"/>
  <unicode hex="0038"/>
  <outline>
    <contour>
      <point x="183" y="696"/>
      <point x="90" y="632"/>
      <point x="90" y="499" type="curve" smooth="yes"/>
      <point x="90" y="444"/>
      <point x="105" y="402"/>
      <point x="183" y="354" type="curve"/>
      <point x="183" y="350" type="line"/>
      <point x="114" y="321"/>
      <point x="67" y="273"/>
      <point x="67" y="185" type="curve" smooth="yes"/>
      <point x="67" y="61"/>
      <point x="162" y="-10"/>
      <point x="307" y="-10" type="curve" smooth="yes"/>
      <point x="462" y="-10"/>
      <point x="547" y="64"/>
      <point x="547" y="185" type="curve" smooth="yes"/>
      <point x="547" y="274"/>
      <point x="500" y="318"/>
      <point x="431" y="350" type="curve"/>
      <point x="431" y="354" type="line"/>
      <point x="492" y="391"/>
      <point x="524" y="430"/>
      <point x="524" y="505" type="curve" smooth="yes"/>
      <point x="524" y="621"/>
      <point x="437" y="696"/>
      <point x="307" y="696" type="curve" smooth="yes"/>
    </contour>
    <contour>
      <point x="392" y="306"/>
      <point x="449" y="264"/>
      <point x="449" y="192" type="curve" smooth="yes"/>
      <point x="449" y="118"/>
      <point x="388" y="79"/>
      <point x="307" y="79" type="curve" smooth="yes"/>
      <point x="230" y="79"/>
      <point x="165" y="114"/>
      <point x="165" y="192" type="curve" smooth="yes"/>
      <point x="165" y="211"/>
      <point x="169" y="227"/>
      <point x="176" y="242" type="curve" smooth="yes"/>
      <point x="198" y="285"/>
      <point x="242" y="306"/>
      <point x="307" y="306" type="curve" smooth="yes"/>
    </contour>
    <contour>
      <point x="380" y="607"/>
      <point x="426" y="561"/>
      <point x="426" y="501" type="curve" smooth="yes"/>
      <point x="426" y="441"/>
      <point x="380" y="395"/>
      <point x="307" y="395" type="curve" smooth="yes"/>
      <point x="234" y="395"/>
      <point x="188" y="441"/>
      <point x="188" y="501" type="curve" smooth="yes"/>
      <point x="188" y="561"/>
      <point x="234" y="607"/>
      <point x="307" y="607" type="curve" smooth="yes"/>
    </contour>
  </outline>
</glyph>
<glyph name="colon" format="1">
  <advance width="239"/>
  <unicode hex="003A"/>
  <outline>
    <contour>
      <point x="69" y="511" type="line"/>
      <point x="69" y="399" type="line"/>
      <point x="170" y="399" type="line"/>
      <point x="170" y="511" type="line"/>
    </contour>
    <contour>
      <point x="69" y="111" type="line"/>
      <point x="69" y="0" type="line"/>
      <point x="170" y="0" type="line"/>
      <point x="170" y="111" type="line"/>
    </contour>
  </outline>
</glyph>
<glyph name="semicolon" format="1">
  <advance width="239"/>
  <unicode hex="003B"/>
  <outline>
    <contour>
      <point x="69" y="111" type="line"/>
      <point x="69" y="0" type="line"/>
      <point x="110" y="0" type="line"/>
      <point x="83" y="-124" type="line"/>
      <point x="135" y="-124" type="line"/>
      <point x="170" y="26" type="line"/>
      <point x="170" y="111" type="line"/>
    </contour>
    <contour>
      <point x="69" y="511" type="line"/>
      <point x="69" y="399" type="line"/>
      <point x="170" y="399" type="line"/>
      <point x="170" y="511" type="line"/>
    </contour>
  </outline>
</glyph>
<glyph name="greater" format="1">
  <advance width="615"/>
  <unicode hex="003E"/>
  <outline>
    <contour>
      <point x="62" y="414" type="line"/>
      <point x="139" y="385"/>
      <point x="282" y="331"/>
      <point x="490" y="254" type="curve"/>
      <point x="346" y="199"/>
      <point x="205" y="147"/>
      <point x="62" y="94" type="curve"/>
      <point x="62" y="4" type="line"/>
      <point x="571" y="200" type="line"/>
      <point x="571" y="307" type="line"/>
      <point x="62" y="504" type="line"/>
    </contour>
  </outline>
</glyph>
<glyph name="at" format="1">
  <advance width="885"/>
  <unicode hex="0040"/>
  <outline>
    <contour>
      <point x="211" y="697"/>
      <point x="38" y="559"/>
      <point x="38" y="268" type="curve" smooth="yes"/>
      <point x="38" y="-16"/>
      <point x="173" y="-153"/>
      <point x="424" y="-153" type="curve" smooth="yes"/>
      <point x="441" y="-153"/>
      <point x="531" y="-149"/>
      <point x="589" y="-126" type="curve"/>
      <point x="589" y="-66" type="line"/>
      <point x="574" y="-74"/>
      <point x="496" y="-98"/>
      <point x="424" y="-98" type="curve" smooth="yes"/>
      <point x="200" y="-98"/>
      <point x="97" y="19"/>
      <point x="97" y="266" type="curve" smooth="yes"/>
      <point x="97" y="508"/>
      <point x="228" y="642"/>
      <point x="458" y="642" type="curve" smooth="yes"/>
      <point x="674" y="642"/>
      <point x="796" y="531"/>
      <point x="796" y="330" type="curve" smooth="yes"/>
      <point x="796" y="166"/>
      <point x="756" y="91"/>
      <point x="688" y="91" type="curve" smooth="yes"/>
      <point x="663" y="91"/>
      <point x="651" y="104"/>
      <point x="651" y="129" type="curve" smooth="yes"/>
      <point x="651" y="374" type="line" smooth="yes"/>
      <point x="651" y="467"/>
      <point x="591" y="521"/>
      <point x="463" y="521" type="curve" smooth="yes"/>
      <point x="454" y="521" type="line" smooth="yes"/>
      <point x="334" y="521"/>
      <point x="257" y="457"/>
      <point x="257" y="395" type="curve" smooth="yes"/>
      <point x="257" y="381"/>
      <point x="258" y="371"/>
      <point x="259" y="364" type="curve"/>
      <point x="345" y="364" type="line"/>
      <point x="345" y="375" type="line" smooth="yes"/>
      <point x="345" y="422"/>
      <point x="386" y="451"/>
      <point x="452" y="451" type="curve" smooth="yes"/>
      <point x="519" y="451"/>
      <point x="562" y="430"/>
      <point x="562" y="364" type="curve" smooth="yes"/>
      <point x="562" y="320" type="line"/>
      <point x="321" y="320"/>
      <point x="241" y="279"/>
      <point x="241" y="164" type="curve" smooth="yes"/>
      <point x="241" y="64"/>
      <point x="294" y="22"/>
      <point x="398" y="22" type="curve" smooth="yes"/>
      <point x="472" y="22"/>
      <point x="527" y="50"/>
      <point x="564" y="106" type="curve"/>
      <point x="567" y="109" type="line"/>
      <point x="571" y="51"/>
      <point x="601" y="22"/>
      <point x="668" y="22" type="curve" smooth="yes"/>
      <point x="756" y="22"/>
      <point x="855" y="94"/>
      <point x="855" y="328" type="curve" smooth="yes"/>
      <point x="855" y="571"/>
      <point x="705" y="697"/>
      <point x="459" y="697" type="curve" smooth="yes"/>
    </contour>
    <contour>
      <point x="562" y="233" type="line" smooth="yes"/>
      <point x="562" y="153"/>
      <point x="504" y="92"/>
      <point x="428" y="92" type="curve" smooth="yes"/>
      <point x="362" y="92"/>
      <point x="329" y="114"/>
      <point x="329" y="158" type="curve" smooth="yes"/>
      <point x="329" y="220"/>
      <point x="361" y="251"/>
      <point x="562" y="251" type="curve"/>
    </contour>
  </outline>
</glyph>
<glyph name="D" format="1">
  <advance width="675"/>
  <unicode hex="0044"/>
  <outline>
    <contour>
      <point x="92" y="686" type="line"/>
      <point x="92" y="0" type="line"/>
      <point x="330" y="0" type="line" smooth="yes"/>
      <point x="503" y="0"/>
      <point x="614" y="119"/>
      <point x="614" y="308" type="curve" smooth="yes"/>
      <point x="614" y="378" type="line" smooth="yes"/>
      <point x="614" y="567"/>
      <point x="503" y="686"/>
      <point x="330" y="686" type="curve" smooth="yes"/>
    </contour>
    <contour>
      <point x="452" y="597"/>
      <point x="516" y="519"/>
      <point x="516" y="378" type="curve" smooth="yes"/>
      <point x="516" y="308" type="line" smooth="yes"/>
      <point x="516" y="162"/>
      <point x="447" y="89"/>
      <point x="330" y="89" type="curve" smooth="yes"/>
      <point x="190" y="89" type="line"/>
      <point x="190" y="597" type="line"/>
      <point x="330" y="597" type="line" smooth="yes"/>
    </contour>
    <contour>
      <point x="338" y="343" type="move" name="center"/>
    </contour>
    <contour>
      <point x="338" y="686" type="move" name="top"/>
    </contour>
  </outline>
</glyph>
<glyph name="F" format="1">
  <advance width="550"/>
  <unicode hex="0046"/>
  <outline>
    <contour>
      <point x="92" y="686" type="line"/>
      <point x="92" y="0" type="line"/>
      <point x="190" y="0" type="line"/>
      <point x="190" y="299" type="line"/>
      <point x="470" y="299" type="line"/>
      <point x="470" y="388" type="line"/>
      <point x="190" y="388" type="line"/>
      <point x="190" y="597" type="line"/>
      <point x="511" y="597" type="line"/>
      <point x="524" y="686" type="line"/>
    </contour>
  </outline>
</glyph>
<glyph name="H" format="1">
  <advance width="693"/>
  <unicode hex="0048"/>
  <outline>
    <contour>
      <point x="503" y="686" type="line"/>
      <point x="503" y="395" type="line"/>
      <point x="190" y="395" type="line"/>
      <point x="190" y="686" type="line"/>
      <point x="92" y="686" type="line"/>
      <point x="92" y="0" type="line"/>
      <point x="190" y="0" type="line"/>
      <point x="190" y="306" type="line"/>
      <point x="503" y="306" type="line"/>
      <point x="503" y="0" type="line"/>
      <point x="601" y="0" type="line"/>
      <point x="601" y="686" type="line"/>
    </contour>
    <contour>
      <point x="347" y="343" type="move" name="center"/>
    </contour>
    <contour>
      <point x="347" y="686" type="move" name="top"/>
    </contour>
  </outline>
</glyph>
<glyph name="Q" format="1">
  <advance width="690"/>
  <unicode hex="0051"/>
  <outline>
    <contour>
      <point x="175" y="696"/>
      <point x="61" y="581"/>
      <point x="61" y="388" type="curve" smooth="yes"/>
      <point x="61" y="298" type="line" smooth="yes"/>
      <point x="61" y="123"/>
      <point x="151" y="11"/>
      <point x="305" y="-8" type="curve"/>
      <point x="318" y="-77"/>
      <point x="355" y="-145"/>
      <point x="499" y="-145" type="curve" smooth="yes"/>
      <point x="539" y="-145"/>
      <point x="579" y="-134"/>
      <point x="618" y="-112" type="curve"/>
      <point x="618" y="-42" type="line"/>
      <point x="606" y="-46" type="line" smooth="yes"/>
      <point x="566" y="-62"/>
      <point x="531" y="-70"/>
      <point x="501" y="-70" type="curve" smooth="yes"/>
      <point x="457" y="-70"/>
      <point x="415" y="-54"/>
      <point x="402" y="-5" type="curve"/>
      <point x="545" y="18"/>
      <point x="629" y="131"/>
      <point x="629" y="298" type="curve" smooth="yes"/>
      <point x="629" y="388" type="line" smooth="yes"/>
      <point x="629" y="581"/>
      <point x="515" y="696"/>
      <point x="345" y="696" type="curve" smooth="yes"/>
    </contour>
    <contour>
      <point x="467" y="607"/>
      <point x="531" y="530"/>
      <point x="531" y="388" type="curve" smooth="yes"/>
      <point x="531" y="298" type="line" smooth="yes"/>
      <point x="531" y="151"/>
      <point x="459" y="79"/>
      <point x="345" y="79" type="curve" smooth="yes"/>
      <point x="223" y="79"/>
      <point x="159" y="156"/>
      <point x="159" y="298" type="curve" smooth="yes"/>
      <point x="159" y="388" type="line" smooth="yes"/>
      <point x="159" y="533"/>
      <point x="229" y="607"/>
      <point x="345" y="607" type="curve" smooth="yes"/>
    </contour>
  </outline>
</glyph>
<glyph name="S" format="1">
  <advance width="627"/>
  <unicode hex="0053"/>
  <outline>
    <contour>
      <point x="174" y="696"/>
      <point x="68" y="640"/>
      <point x="68" y="501" type="curve" smooth="yes"/>
      <point x="68" y="257"/>
      <point x="476" y="358"/>
      <point x="476" y="182" type="curve" smooth="yes"/>
      <point x="476" y="118"/>
      <point x="414" y="79"/>
      <point x="314" y="79" type="curve" smooth="yes"/>
      <point x="214" y="79"/>
      <point x="150" y="115"/>
      <point x="150" y="194" type="curve"/>
      <point x="151" y="215" type="line"/>
      <point x="53" y="215" type="line"/>
      <point x="52" y="195" type="line"/>
      <point x="52" y="59"/>
      <point x="151" y="-10"/>
      <point x="313" y="-10" type="curve" smooth="yes"/>
      <point x="470" y="-10"/>
      <point x="574" y="50"/>
      <point x="574" y="205" type="curve" smooth="yes"/>
      <point x="574" y="449"/>
      <point x="166" y="359"/>
      <point x="166" y="516" type="curve" smooth="yes"/>
      <point x="166" y="575"/>
      <point x="223" y="607"/>
      <point x="316" y="607" type="curve" smooth="yes"/>
      <point x="399" y="607"/>
      <point x="458" y="572"/>
      <point x="458" y="507" type="curve" smooth="yes"/>
      <point x="458" y="492" type="line"/>
      <point x="556" y="492" type="line"/>
      <point x="556" y="504" type="line" smooth="yes"/>
      <point x="556" y="628"/>
      <point x="462" y="696"/>
      <point x="314" y="696" type="curve" smooth="yes"/>
    </contour>
    <contour>
      <point x="314" y="686" type="move" name="top"/>
    </contour>
    <contour>
      <point x="314" y="0" type="move" name="bottom"/>
    </contour>
  </outline>
</glyph>
<glyph name="Z" format="1">
  <advance width="596"/>
  <unicode hex="005A"/>
  <outline>
    <contour>
      <point x="56" y="686" type="line"/>
      <point x="56" y="597" type="line"/>
      <point x="397" y="597" type="line"/>
      <point x="32" y="38" type="line"/>
      <point x="32" y="0" type="line"/>
      <point x="555" y="0" type="line"/>
      <point x="555" y="89" type="line"/>
      <point x="181" y="89" type="line"/>
      <point x="547" y="648" type="line"/>
      <point x="547" y="686" type="line"/>
    </contour>
    <contour>
      <point x="298" y="686" type="move" name="top"/>
    </contour>
  </outline>
</glyph>
<glyph name="asciicircum" format="1">
  <advance width="596"/>
  <unicode hex="005E"/>
  <outline>
    <contour>
      <point x="246" y="511" type="line"/>
      <point x="49" y="0" type="line"/>
      <point x="133" y="0" type="line"/>
      <point x="298" y="421" type="line"/>
      <point x="375" y="222"/>
      <point x="429" y="82"/>
      <point x="462" y="0" type="curve"/>
      <point x="546" y="0" type="line"/>
      <point x="349" y="511" type="line"/>
    </contour>
  </outline>
</glyph>
<glyph name="underscore" format="1">
  <advance width="694"/>
  <unicode hex="005F"/>
  <outline>
    <contour>
      <point x="97" y="-64" type="line"/>
      <point x="97" y="-124" type="line"/>
      <point x="597" y="-124" type="line"/>
      <point x="597" y="-64" type="line"/>
    </contour>
  </outline>
</glyph>
<glyph name="g" format="1">
  <advance width="568"/>
  <unicode hex="0067"/>
  <outline>
    <contour>
      <point x="471" y="603" type="line"/>
      <point x="464" y="560"/>
      <point x="437" y="527"/>
      <point x="390" y="504" type="curve"/>
      <point x="360" y="515"/>
      <point x="326" y="521"/>
      <point x="288" y="521" type="curve" smooth="yes"/>
      <point x="284" y="521" type="line" smooth="yes"/>
      <point x="154" y="521"/>
      <point x="78" y="458"/>
      <point x="78" y="360" type="curve" smooth="yes"/>
      <point x="78" y="302"/>
      <point x="100" y="260"/>
      <point x="145" y="235" type="curve"/>
      <point x="96" y="218"/>
      <point x="65" y="183"/>
      <point x="65" y="134" type="curve" smooth="yes"/>
      <point x="65" y="98"/>
      <point x="80" y="70"/>
      <point x="111" y="51" type="curve"/>
      <point x="67" y="32"/>
      <point x="36" y="-11"/>
      <point x="36" y="-68" type="curve" smooth="yes"/>
      <point x="36" y="-125"/>
      <point x="90" y="-188"/>
      <point x="160" y="-188" type="curve" smooth="yes"/>
      <point x="361" y="-188" type="line" smooth="yes"/>
      <point x="477" y="-188"/>
      <point x="551" y="-129"/>
      <point x="551" y="-38" type="curve" smooth="yes"/>
      <point x="551" y="37"/>
      <point x="501" y="93"/>
      <point x="421" y="93" type="curve" smooth="yes"/>
      <point x="228" y="93" type="line" smooth="yes"/>
      <point x="185" y="93"/>
      <point x="158" y="113"/>
      <point x="158" y="145" type="curve" smooth="yes"/>
      <point x="158" y="177"/>
      <point x="188" y="200"/>
      <point x="228" y="200" type="curve" smooth="yes"/>
      <point x="296" y="200" type="line" smooth="yes"/>
      <point x="422" y="200"/>
      <point x="497" y="265"/>
      <point x="497" y="360" type="curve" smooth="yes"/>
      <point x="497" y="405"/>
      <point x="480" y="441"/>
      <point x="447" y="470" type="curve"/>
      <point x="449" y="473" type="line"/>
      <point x="513" y="486"/>
      <point x="551" y="536"/>
      <point x="551" y="603" type="curve"/>
    </contour>
    <contour>
      <point x="436" y="3"/>
      <point x="458" y="-20"/>
      <point x="458" y="-52" type="curve" smooth="yes"/>
      <point x="458" y="-84"/>
      <point x="423" y="-113"/>
      <point x="380" y="-113" type="curve" smooth="yes"/>
      <point x="187" y="-113" type="line" smooth="yes"/>
      <point x="155" y="-113"/>
      <point x="129" y="-87"/>
      <point x="129" y="-55" type="curve" smooth="yes"/>
      <point x="129" y="-23"/>
      <point x="155" y="3"/>
      <point x="187" y="3" type="curve" smooth="yes"/>
      <point x="393" y="3" type="line" smooth="yes"/>
    </contour>
    <contour>
      <point x="352" y="446"/>
      <point x="404" y="423"/>
      <point x="404" y="360" type="curve" smooth="yes"/>
      <point x="404" y="297"/>
      <point x="352" y="275"/>
      <point x="287" y="275" type="curve" smooth="yes"/>
      <point x="222" y="275"/>
      <point x="171" y="297"/>
      <point x="171" y="360" type="curve" smooth="yes"/>
      <point x="171" y="423"/>
      <point x="222" y="446"/>
      <point x="287" y="446" type="curve" smooth="yes"/>
    </contour>
    <contour>
      <point x="284" y="511" type="move" name="top"/>
    </contour>
  </outline>
</glyph>
<glyph name="j" format="1">
  <advance width="260"/>
  <unicode hex="006A"/>
  <outline>
    <contour>
      <point x="83" y="511" type="line"/>
      <point x="83" y="-44" type="line" smooth="yes"/>
      <point x="83" y="-93"/>
      <point x="68" y="-112"/>
      <point x="18" y="-112" type="curve" smooth="yes"/>
      <point x="5" y="-112"/>
      <point x="-12" y="-107"/>
      <point x="-34" y="-97" type="curve"/>
      <point x="-34" y="-167" type="line"/>
      <point x="-11" y="-180"/>
      <point x="17" y="-186"/>
      <point x="52" y="-186" type="curve" smooth="yes"/>
      <point x="145" y="-186"/>
      <point x="177" y="-134"/>
      <point x="177" y="-15" type="curve" smooth="yes"/>
      <point x="177" y="511" type="line"/>
    </contour>
    <contour>
      <point x="81" y="720" type="line"/>
      <point x="81" y="633" type="line"/>
      <point x="179" y="633" type="line"/>
      <point x="179" y="720" type="line"/>
    </contour>
  </outline>
</glyph>
<glyph name="m" format="1">
  <advance width="867"/>
  <unicode hex="006D"/>
  <outline>
    <contour>
      <point x="570" y="521"/>
      <point x="514" y="505"/>
      <point x="465" y="436" type="curve"/>
      <point x="439" y="493"/>
      <point x="392" y="521"/>
      <point x="325" y="521" type="curve" smooth="yes"/>
      <point x="257" y="521"/>
      <point x="203" y="493"/>
      <point x="164" y="436" type="curve"/>
      <point x="151" y="511" type="line"/>
      <point x="83" y="511" type="line"/>
      <point x="83" y="0" type="line"/>
      <point x="177" y="0" type="line"/>
      <point x="177" y="304" type="line" smooth="yes"/>
      <point x="177" y="384"/>
      <point x="232" y="446"/>
      <point x="297" y="446" type="curve" smooth="yes"/>
      <point x="358" y="446"/>
      <point x="389" y="406"/>
      <point x="389" y="327" type="curve" smooth="yes"/>
      <point x="389" y="0" type="line"/>
      <point x="483" y="0" type="line"/>
      <point x="483" y="304" type="line" smooth="yes"/>
      <point x="483" y="384"/>
      <point x="538" y="446"/>
      <point x="603" y="446" type="curve" smooth="yes"/>
      <point x="664" y="446"/>
      <point x="695" y="406"/>
      <point x="695" y="327" type="curve" smooth="yes"/>
      <point x="695" y="0" type="line"/>
      <point x="789" y="0" type="line"/>
      <point x="789" y="344" type="line" smooth="yes"/>
      <point x="789" y="458"/>
      <point x="726" y="521"/>
      <point x="622" y="521" type="curve" smooth="yes"/>
    </contour>
  </outline>
</glyph>
<glyph name="n" format="1">
  <advance width="593"/>
  <unicode hex="006E"/>
  <outline>
    <contour>
      <point x="264" y="521"/>
      <point x="207" y="493"/>
      <point x="164" y="436" type="curve"/>
      <point x="151" y="511" type="line"/>
      <point x="83" y="511" type="line"/>
      <point x="83" y="0" type="line"/>
      <point x="177" y="0" type="line"/>
      <point x="177" y="304" type="line" smooth="yes"/>
      <point x="177" y="383"/>
      <point x="241" y="446"/>
      <point x="313" y="446" type="curve" smooth="yes"/>
      <point x="377" y="446"/>
      <point x="421" y="414"/>
      <point x="421" y="327" type="curve" smooth="yes"/>
      <point x="421" y="0" type="line"/>
      <point x="515" y="0" type="line"/>
      <point x="515" y="344" type="line" smooth="yes"/>
      <point x="515" y="462"/>
      <point x="444" y="521"/>
      <point x="335" y="521" type="curve" smooth="yes"/>
    </contour>
    <contour>
      <point x="297" y="511" type="move" name="top"/>
    </contour>
    <contour>
      <point x="297" y="0" type="move" name="bottom"/>
    </contour>
  </outline>
</glyph>
<glyph name="q" format="1">
  <advance width="583"/>
  <unicode hex="0071"/>
  <outline>
    <contour>
      <point x="129" y="521"/>
      <point x="52" y="421"/>
      <point x="52" y="255" type="curve" smooth="yes"/>
      <point x="52" y="244" type="line" smooth="yes"/>
      <point x="52" y="91"/>
      <point x="126" y="-10"/>
      <point x="258" y="-10" type="curve" smooth="yes"/>
      <point x="322" y="-10"/>
      <point x="377" y="24"/>
      <point x="406" y="65" type="curve"/>
      <point x="406" y="-180" type="line"/>
      <point x="500" y="-180" type="line"/>
      <point x="500" y="511" type="line"/>
      <point x="464" y="511" type="line"/>
      <point x="431" y="430" type="line"/>
      <point x="392" y="491"/>
      <point x="335" y="521"/>
      <point x="259" y="521" type="curve" smooth="yes"/>
    </contour>
    <contour>
      <point x="362" y="446"/>
      <point x="407" y="388"/>
      <point x="407" y="256" type="curve" smooth="yes"/>
      <point x="407" y="126"/>
      <point x="365" y="65"/>
      <point x="277" y="65" type="curve" smooth="yes"/>
      <point x="189" y="65"/>
      <point x="146" y="124"/>
      <point x="146" y="256" type="curve" smooth="yes"/>
      <point x="146" y="383"/>
      <point x="186" y="446"/>
      <point x="277" y="446" type="curve" smooth="yes"/>
    </contour>
  </outline>
</glyph>
<glyph name="r" format="1">
  <advance width="490"/>
  <unicode hex="0072"/>
  <outline>
    <contour>
      <point x="233" y="521"/>
      <point x="176" y="473"/>
      <point x="164" y="435" type="curve"/>
      <point x="150" y="511" type="line"/>
      <point x="83" y="511" type="line"/>
      <point x="83" y="0" type="line"/>
      <point x="177" y="0" type="line"/>
      <point x="177" y="305" type="line" smooth="yes"/>
      <point x="177" y="391"/>
      <point x="215" y="446"/>
      <point x="279" y="446" type="curve" smooth="yes"/>
      <point x="323" y="446"/>
      <point x="378" y="409"/>
      <point x="378" y="345" type="curve" smooth="yes"/>
      <point x="378" y="323" type="line"/>
      <point x="461" y="323" type="line"/>
      <point x="464" y="361" type="line"/>
      <point x="464" y="449"/>
      <point x="412" y="521"/>
      <point x="313" y="521" type="curve" smooth="yes"/>
    </contour>
    <contour>
      <point x="130" y="511" type="move" name="top"/>
    </contour>
    <contour>
      <point x="130" y="0" type="move" name="bottom"/>
    </contour>
  </outline>
</glyph>
<glyph name="t" format="1">
  <advance width="346"/>
  <unicode hex="0074"/>
  <outline>
    <contour>
      <point x="134" y="674" type="line"/>
      <point x="102" y="511" type="line"/>
      <point x="43" y="511" type="line"/>
      <point x="43" y="436" type="line"/>
      <point x="99" y="436" type="line"/>
      <point x="99" y="136" type="line" smooth="yes"/>
      <point x="99" y="32"/>
      <point x="142" y="-10"/>
      <point x="219" y="-10" type="curve" smooth="yes"/>
      <point x="257" y="-10"/>
      <point x="288" y="-4"/>
      <point x="312" y="8" type="curve"/>
      <point x="312" y="78" type="line"/>
      <point x="288" y="68"/>
      <point x="267" y="63"/>
      <point x="250" y="63" type="curve" smooth="yes"/>
      <point x="212" y="63"/>
      <point x="193" y="82"/>
      <point x="193" y="131" type="curve" smooth="yes"/>
      <point x="193" y="436" type="line"/>
      <point x="312" y="436" type="line"/>
      <point x="312" y="511" type="line"/>
      <point x="193" y="511" type="line"/>
      <point x="193" y="674" type="line"/>
    </contour>
    <contour>
      <point x="146" y="256" type="move" name="center"/>
    </contour>
    <contour>
      <point x="173" y="0" type="move" name="bottom"/>
    </contour>
    <contour>
      <point x="376" y="686" type="move" name="topright"/>
    </contour>
  </outline>
</glyph>
<glyph name="exclamdown" format="1">
  <advance width="254"/>
  <unicode hex="00A1"/>
  <outline>
    <contour>
      <point x="94" y="335" type="line"/>
      <point x="94" y="-176" type="line"/>
      <point x="184" y="-176" type="line"/>
      <point x="184" y="335" type="line"/>
    </contour>
    <contour>
      <point x="76" y="510" type="line"/>
      <point x="76" y="399" type="line"/>
      <point x="177" y="399" type="line"/>
      <point x="177" y="510" type="line"/>
    </contour>
  </outline>
</glyph>
<glyph name="currency" format="1">
  <advance width="624"/>
  <unicode hex="00A4"/>
  <outline>
    <contour>
      <point x="463" y="533" type="line"/>
      <point x="417" y="568"/>
      <point x="367" y="585"/>
      <point x="313" y="585" type="curve" smooth="yes"/>
      <point x="259" y="585"/>
      <point x="209" y="568"/>
      <point x="162" y="535" type="curve"/>
      <point x="111" y="587" type="line"/>
      <point x="63" y="539" type="line"/>
      <point x="114" y="487" type="line"/>
      <point x="81" y="440"/>
      <point x="64" y="390"/>
      <point x="64" y="336" type="curve" smooth="yes"/>
      <point x="64" y="281"/>
      <point x="81" y="231"/>
      <point x="115" y="186" type="curve"/>
      <point x="62" y="133" type="line"/>
      <point x="110" y="85" type="line"/>
      <point x="163" y="138" type="line"/>
      <point x="208" y="105"/>
      <point x="258" y="89"/>
      <point x="312" y="89" type="curve" smooth="yes"/>
      <point x="367" y="89"/>
      <point x="416" y="106"/>
      <point x="461" y="139" type="curve"/>
      <point x="516" y="85" type="line"/>
      <point x="564" y="133" type="line"/>
      <point x="509" y="187" type="line"/>
      <point x="543" y="232"/>
      <point x="560" y="282"/>
      <point x="560" y="337" type="curve" smooth="yes"/>
      <point x="560" y="390"/>
      <point x="544" y="440"/>
      <point x="511" y="485" type="curve"/>
      <point x="565" y="539" type="line"/>
      <point x="517" y="587" type="line"/>
    </contour>
    <contour>
      <point x="409" y="516"/>
      <point x="491" y="434"/>
      <point x="491" y="337" type="curve" smooth="yes"/>
      <point x="491" y="239"/>
      <point x="410" y="158"/>
      <point x="312" y="158" type="curve" smooth="yes"/>
      <point x="213" y="158"/>
      <point x="133" y="238"/>
      <point x="133" y="337" type="curve" smooth="yes"/>
      <point x="133" y="435"/>
      <point x="214" y="516"/>
      <point x="312" y="516" type="curve" smooth="yes"/>
    </contour>
  </outline>
</glyph>
<glyph name="brokenbar" format="1">
  <advance width="269"/>
  <unicode hex="00A6"/>
  <outline>
    <contour>
      <point x="90" y="686" type="line"/>
      <point x="90" y="419" type="line"/>
      <point x="179" y="419" type="line"/>
      <point x="179" y="686" type="line"/>
    </contour>
    <contour>
      <point x="90" y="266" type="line"/>
      <point x="90" y="0" type="line"/>
      <point x="179" y="0" type="line"/>
      <point x="179" y="266" type="line"/>
    </contour>
  </outline>
</glyph>
<glyph name="copyright" format="1">
  <advance width="780"/>
  <unicode hex="00A9"/>
  <outline>
    <contour>
      <point x="193" y="696"/>
      <point x="36" y="539"/>
      <point x="36" y="344" type="curve" smooth="yes"/>
      <point x="36" y="147"/>
      <point x="193" y="-10"/>
      <point x="390" y="-10" type="curve" smooth="yes"/>
      <point x="585" y="-10"/>
      <point x="744" y="147"/>
      <point x="744" y="344" type="curve" smooth="yes"/>
      <point x="744" y="539"/>
      <point x="585" y="696"/>
      <point x="390" y="696" type="curve" smooth="yes"/>
    </contour>
    <contour>
      <point x="390" y="556" type="line" smooth="yes"/>
      <point x="288" y="556"/>
      <point x="221" y="490"/>
      <point x="221" y="386" type="curve" smooth="yes"/>
      <point x="221" y="300" type="line" smooth="yes"/>
      <point x="221" y="195"/>
      <point x="288" y="129"/>
      <point x="391" y="129" type="curve" smooth="yes"/>
      <point x="396" y="129" type="line" smooth="yes"/>
      <point x="492" y="129"/>
      <point x="558" y="189"/>
      <point x="558" y="296" type="curve"/>
      <point x="493" y="296" type="line"/>
      <point x="493" y="225"/>
      <point x="451" y="187"/>
      <point x="394" y="187" type="curve" smooth="yes"/>
      <point x="331" y="187"/>
      <point x="288" y="223"/>
      <point x="288" y="286" type="curve" smooth="yes"/>
      <point x="288" y="401" type="line" smooth="yes"/>
      <point x="288" y="467"/>
      <point x="333" y="499"/>
      <point x="393" y="499" type="curve" smooth="yes"/>
      <point x="451" y="499"/>
      <point x="491" y="458"/>
      <point x="491" y="401" type="curve" smooth="yes"/>
      <point x="491" y="388" type="line"/>
      <point x="558" y="388" type="line"/>
      <point x="558" y="500"/>
      <point x="494" y="556"/>
      <point x="395" y="556" type="curve" smooth="yes"/>
    </contour>
    <contour>
      <point x="559" y="655"/>
      <point x="703" y="526"/>
      <point x="703" y="343" type="curve" smooth="yes"/>
      <point x="703" y="165"/>
      <point x="565" y="30"/>
      <point x="390" y="30" type="curve" smooth="yes"/>
      <point x="209" y="30"/>
      <point x="76" y="166"/>
      <point x="76" y="344" type="curve" smooth="yes"/>
      <point x="76" y="517"/>
      <point x="209" y="655"/>
      <point x="390" y="655" type="curve" smooth="yes"/>
    </contour>
  </outline>
</glyph>
<glyph name="guillemotleft" format="1">
  <advance width="460"/>
  <unicode hex="00AB"/>
  <outline>
    <contour>
      <point x="354" y="511" type="line"/>
      <point x="231" y="337" type="line"/>
      <point x="354" y="163" type="line"/>
      <point x="404" y="163" type="line"/>
      <point x="311" y="337" type="line"/>
      <point x="404" y="511" type="line"/>
    </contour>
    <contour>
      <point x="171" y="511" type="line"/>
      <point x="49" y="337" type="line"/>
      <point x="171" y="163" type="line"/>
      <point x="222" y="163" type="line"/>
      <point x="128" y="337" type="line"/>
      <point x="222" y="511" type="line"/>
    </contour>
  </outline>
</glyph>
<glyph name="uni00AD" format="1">
  <advance width="391"/>
  <unicode hex="00AD"/>
  <outline>
    <contour>
      <point x="69" y="319" type="line"/>
      <point x="69" y="221" type="line"/>
      <point x="322" y="221" type="line"/>
      <point x="322" y="319" type="line"/>
    </contour>
  </outline>
</glyph>
<glyph name="registered" format="1">
  <advance width="780"/>
  <unicode hex="00AE"/>
  <outline>
    <contour>
      <point x="193" y="696"/>
      <point x="36" y="539"/>
      <point x="36" y="344" type="curve" smooth="yes"/>
      <point x="36" y="147"/>
      <point x="193" y="-10"/>
      <point x="390" y="-10" type="curve" smooth="yes"/>
      <point x="585" y="-10"/>
      <point x="744" y="147"/>
      <point x="744" y="344" type="curve" smooth="yes"/>
      <point x="744" y="539"/>
      <point x="585" y="696"/>
      <point x="390" y="696" type="curve" smooth="yes"/>
    </contour>
    <contour>
      <point x="560" y="656"/>
      <point x="704" y="529"/>
      <point x="704" y="344" type="curve" smooth="yes"/>
      <point x="704" y="162"/>
      <point x="565" y="30"/>
      <point x="390" y="30" type="curve" smooth="yes"/>
      <point x="209" y="30"/>
      <point x="76" y="166"/>
      <point x="76" y="344" type="curve" smooth="yes"/>
      <point x="76" y="519"/>
      <point x="209" y="656"/>
      <point x="390" y="656" type="curve" smooth="yes"/>
    </contour>
    <contour>
      <point x="246" y="547" type="line"/>
      <point x="246" y="135" type="line"/>
      <point x="310" y="135" type="line"/>
      <point x="310" y="319" type="line"/>
      <point x="409" y="319" type="line" smooth="yes"/>
      <point x="441" y="319"/>
      <point x="476" y="296"/>
      <point x="476" y="205" type="curve" smooth="yes"/>
      <point x="476" y="157"/>
      <point x="495" y="132"/>
      <point x="541" y="132" type="curve" smooth="yes"/>
      <point x="551" y="132"/>
      <point x="561" y="134"/>
      <point x="571" y="138" type="curve"/>
      <point x="571" y="156" type="line"/>
      <point x="514" y="176"/>
      <point x="568" y="311"/>
      <point x="480" y="347" type="curve"/>
      <point x="515" y="360"/>
      <point x="547" y="396"/>
      <point x="547" y="449" type="curve" smooth="yes"/>
      <point x="547" y="502"/>
      <point x="491" y="547"/>
      <point x="433" y="547" type="curve" smooth="yes"/>
    </contour>
    <contour>
      <point x="456" y="492"/>
      <point x="484" y="467"/>
      <point x="484" y="435" type="curve" smooth="yes"/>
      <point x="484" y="431" type="line" smooth="yes"/>
      <point x="484" y="399"/>
      <point x="456" y="373"/>
      <point x="421" y="373" type="curve" smooth="yes"/>
      <point x="310" y="373" type="line"/>
      <point x="310" y="492" type="line"/>
      <point x="421" y="492" type="line" smooth="yes"/>
    </contour>
  </outline>
</glyph>
<glyph name="degree" format="1">
  <advance width="394"/>
  <unicode hex="00B0"/>
  <outline>
    <contour>
      <point x="111" y="696"/>
      <point x="47" y="623"/>
      <point x="47" y="546" type="curve" smooth="yes"/>
      <point x="47" y="463"/>
      <point x="118" y="396"/>
      <point x="197" y="396" type="curve" smooth="yes"/>
      <point x="276" y="396"/>
      <point x="347" y="463"/>
      <point x="347" y="546" type="curve" smooth="yes"/>
      <point x="347" y="626"/>
      <point x="277" y="696"/>
      <point x="197" y="696" type="curve" smooth="yes"/>
    </contour>
    <contour>
      <point x="248" y="635"/>
      <point x="290" y="594"/>
      <point x="290" y="545" type="curve" smooth="yes"/>
      <point x="290" y="495"/>
      <point x="247" y="455"/>
      <point x="197" y="455" type="curve" smooth="yes"/>
      <point x="146" y="455"/>
      <point x="103" y="493"/>
      <point x="103" y="545" type="curve" smooth="yes"/>
      <point x="103" y="597"/>
      <point x="147" y="635"/>
      <point x="196" y="635" type="curve" smooth="yes"/>
    </contour>
  </outline>
</glyph>
<glyph name="uni00B2" format="1">
  <advance width="384"/>
  <unicode hex="00B2"/>
  <outline>
    <contour>
      <point x="142" y="800"/>
      <point x="103" y="781"/>
      <point x="80" y="743" type="curve" smooth="yes"/>
      <point x="63" y="714"/>
      <point x="61" y="682"/>
      <point x="61" y="675" type="curve" smooth="yes"/>
      <point x="61" y="671"/>
      <point x="61" y="667"/>
      <point x="62" y="664" type="curve"/>
      <point x="115" y="664" type="line"/>
      <point x="115" y="678" type="line" smooth="yes"/>
      <point x="115" y="706"/>
      <point x="134" y="751"/>
      <point x="191" y="751" type="curve" smooth="yes"/>
      <point x="242" y="751"/>
      <point x="265" y="722"/>
      <point x="265" y="688" type="curve" smooth="yes"/>
      <point x="265" y="657"/>
      <point x="251" y="631"/>
      <point x="222" y="610" type="curve" smooth="yes"/>
      <point x="112" y="528" type="line" smooth="yes"/>
      <point x="78" y="503"/>
      <point x="61" y="469"/>
      <point x="61" y="430" type="curve" smooth="yes"/>
      <point x="61" y="417" type="line"/>
      <point x="320" y="417" type="line"/>
      <point x="320" y="466" type="line"/>
      <point x="120" y="466" type="line"/>
      <point x="120" y="470"/>
      <point x="129" y="479"/>
      <point x="146" y="492" type="curve" smooth="yes"/>
      <point x="251" y="572" type="line" smooth="yes"/>
      <point x="308" y="615"/>
      <point x="319" y="646"/>
      <point x="319" y="694" type="curve" smooth="yes"/>
      <point x="319" y="750"/>
      <point x="270" y="800"/>
      <point x="195" y="800" type="curve" smooth="yes"/>
    </contour>
  </outline>
</glyph>
<glyph name="paragraph" format="1">
  <advance width="524"/>
  <unicode hex="00B6"/>
  <outline>
    <contour>
      <point x="243" y="686" type="line" smooth="yes"/>
      <point x="121" y="686"/>
      <point x="25" y="587"/>
      <point x="25" y="467" type="curve" smooth="yes"/>
      <point x="25" y="354"/>
      <point x="108" y="264"/>
      <point x="217" y="250" type="curve"/>
      <point x="217" y="-169" type="line"/>
      <point x="280" y="-169" type="line"/>
      <point x="280" y="625" type="line"/>
      <point x="352" y="625" type="line"/>
      <point x="352" y="-169" type="line"/>
      <point x="415" y="-169" type="line"/>
      <point x="415" y="625" type="line"/>
      <point x="481" y="625" type="line"/>
      <point x="481" y="686" type="line"/>
    </contour>
  </outline>
</glyph>
<glyph name="Agrave" format="1">
  <advance width="652"/>
  <unicode hex="00C0"/>
  <outline>
    <contour>
      <point x="272" y="686" type="line"/>
      <point x="4" y="0" type="line"/>
      <point x="99" y="0" type="line"/>
      <point x="156" y="149" type="line"/>
      <point x="484" y="149" type="line"/>
      <point x="542" y="0" type="line"/>
      <point x="648" y="0" type="line"/>
      <point x="380" y="686" type="line"/>
    </contour>
    <contour>
      <point x="450" y="238" type="line"/>
      <point x="191" y="238" type="line"/>
      <point x="318" y="568" type="line"/>
      <point x="324" y="568" type="line"/>
    </contour>
    <contour>
      <point x="176" y="895" type="line"/>
      <point x="175" y="892" type="line"/>
      <point x="290" y="750" type="line"/>
      <point x="360" y="750" type="line"/>
      <point x="265" y="895" type="line"/>
    </contour>
  </outline>
</glyph>
<glyph name="Acircumflex" format="1">
  <advance width="652"/>
  <unicode hex="00C2"/>
  <outline>
    <contour>
      <point x="272" y="686" type="line"/>
      <point x="4" y="0" type="line"/>
      <point x="99" y="0" type="line"/>
      <point x="156" y="149" type="line"/>
      <point x="484" y="149" type="line"/>
      <point x="542" y="0" type="line"/>
      <point x="648" y="0" type="line"/>
      <point x="380" y="686" type="line"/>
    </contour>
    <contour>
      <point x="450" y="238" type="line"/>
      <point x="191" y="238" type="line"/>
      <point x="318" y="568" type="line"/>
      <point x="324" y="568" type="line"/>
    </contour>
    <contour>
      <point x="285" y="895" type="line"/>
      <point x="149" y="750" type="line"/>
      <point x="229" y="750" type="line"/>
      <point x="324" y="839" type="line"/>
      <point x="418" y="750" type="line"/>
      <point x="498" y="750" type="line"/>
      <point x="363" y="895" type="line"/>
    </contour>
  </outline>
</glyph>
<glyph name="Adieresis" format="1">
  <advance width="652"/>
  <unicode hex="00C4"/>
  <outline>
    <contour>
      <point x="272" y="686" type="line"/>
      <point x="4" y="0" type="line"/>
      <point x="99" y="0" type="line"/>
      <point x="156" y="149" type="line"/>
      <point x="484" y="149" type="line"/>
      <point x="542" y="0" type="line"/>
      <point x="648" y="0" type="line"/>
      <point x="380" y="686" type="line"/>
    </contour>
    <contour>
      <point x="450" y="238" type="line"/>
      <point x="191" y="238" type="line"/>
      <point x="318" y="568" type="line"/>
      <point x="324" y="568" type="line"/>
    </contour>
    <contour>
      <point x="184" y="847" type="line"/>
      <point x="184" y="749" type="line"/>
      <point x="274" y="749" type="line"/>
      <point x="274" y="847" type="line"/>
    </contour>
    <contour>
      <point x="372" y="847" type="line"/>
      <point x="372" y="749" type="line"/>
      <point x="463" y="749" type="line"/>
      <point x="463" y="847" type="line"/>
    </contour>
  </outline>
</glyph>
<glyph name="Aring" format="1">
  <advance width="652"/>
  <unicode hex="00C5"/>
  <outline>
    <contour>
      <point x="272" y="686" type="line"/>
      <point x="4" y="0" type="line"/>
      <point x="99" y="0" type="line"/>
      <point x="156" y="149" type="line"/>
      <point x="484" y="149" type="line"/>
      <point x="542" y="0" type="line"/>
      <point x="648" y="0" type="line"/>
      <point x="380" y="686" type="line"/>
    </contour>
    <contour>
      <point x="450" y="238" type="line"/>
      <point x="191" y="238" type="line"/>
      <point x="318" y="568" type="line"/>
      <point x="324" y="568" type="line"/>
    </contour>
    <contour>
      <point x="270" y="926"/>
      <point x="225" y="881"/>
      <point x="225" y="825" type="curve" smooth="yes"/>
      <point x="225" y="768"/>
      <point x="273" y="725"/>
      <point x="326" y="725" type="curve" smooth="yes"/>
      <point x="382" y="725"/>
      <point x="427" y="770"/>
      <point x="427" y="825" type="curve" smooth="yes"/>
      <point x="427" y="883"/>
      <point x="376" y="926"/>
      <point x="326" y="926" type="curve" smooth="yes"/>
    </contour>
    <contour>
      <point x="357" y="879"/>
      <point x="382" y="855"/>
      <point x="382" y="826" type="curve" smooth="yes"/>
      <point x="382" y="795"/>
      <point x="357" y="772"/>
      <point x="326" y="772" type="curve" smooth="yes"/>
      <point x="295" y="772"/>
      <point x="270" y="794"/>
      <point x="270" y="825" type="curve" smooth="yes"/>
      <point x="270" y="856"/>
      <point x="295" y="879"/>
      <point x="326" y="879" type="curve" smooth="yes"/>
    </contour>
  </outline>
</glyph>
<glyph name="Edieresis" format="1">
  <advance width="593"/>
  <unicode hex="00CB"/>
  <outline>
    <contour>
      <point x="92" y="686" type="line"/>
      <point x="92" y="0" type="line"/>
      <point x="549" y="0" type="line"/>
      <point x="535" y="89" type="line"/>
      <point x="190" y="89" type="line"/>
      <point x="190" y="306" type="line"/>
      <point x="497" y="306" type="line"/>
      <point x="497" y="395" type="line"/>
      <point x="190" y="395" type="line"/>
      <point x="190" y="597" type="line"/>
      <point x="529" y="597" type="line"/>
      <point x="542" y="686" type="line"/>
    </contour>
    <contour>
      <point x="178" y="848" type="line"/>
      <point x="178" y="750" type="line"/>
      <point x="268" y="750" type="line"/>
      <point x="268" y="848" type="line"/>
    </contour>
    <contour>
      <point x="366" y="848" type="line"/>
      <point x="366" y="750" type="line"/>
      <point x="457" y="750" type="line"/>
      <point x="457" y="848" type="line"/>
    </contour>
  </outline>
</glyph>
<glyph name="Idieresis" format="1">
  <advance width="364"/>
  <unicode hex="00CF"/>
  <outline>
    <contour>
      <point x="53" y="686" type="line"/>
      <point x="53" y="597" type="line"/>
      <point x="133" y="597" type="line"/>
      <point x="133" y="89" type="line"/>
      <point x="53" y="89" type="line"/>
      <point x="53" y="0" type="line"/>
      <point x="311" y="0" type="line"/>
      <point x="311" y="89" type="line"/>
      <point x="231" y="89" type="line"/>
      <point x="231" y="597" type="line"/>
      <point x="311" y="597" type="line"/>
      <point x="311" y="686" type="line"/>
    </contour>
    <contour>
      <point x="43" y="848" type="line"/>
      <point x="43" y="750" type="line"/>
      <point x="133" y="750" type="line"/>
      <point x="133" y="848" type="line"/>
    </contour>
    <contour>
      <point x="231" y="848" type="line"/>
      <point x="231" y="750" type="line"/>
      <point x="322" y="750" type="line"/>
      <point x="322" y="848" type="line"/>
    </contour>
  </outline>
</glyph>
<glyph name="Oslash" format="1">
  <advance width="690"/>
  <unicode hex="00D8"/>
  <outline>
    <contour>
      <point x="560" y="754" type="line"/>
      <point x="501" y="655" type="line"/>
      <point x="457" y="682"/>
      <point x="405" y="696"/>
      <point x="345" y="696" type="curve" smooth="yes"/>
      <point x="175" y="696"/>
      <point x="61" y="581"/>
      <point x="61" y="388" type="curve" smooth="yes"/>
      <point x="61" y="298" type="line" smooth="yes"/>
      <point x="61" y="196"/>
      <point x="90" y="118"/>
      <point x="147" y="63" type="curve"/>
      <point x="70" y="-65" type="line"/>
      <point x="134" y="-65" type="line"/>
      <point x="190" y="30" type="line"/>
      <point x="235" y="3"/>
      <point x="286" y="-10"/>
      <point x="345" y="-10" type="curve" smooth="yes"/>
      <point x="515" y="-10"/>
      <point x="629" y="105"/>
      <point x="629" y="298" type="curve" smooth="yes"/>
      <point x="629" y="388" type="line" smooth="yes"/>
      <point x="629" y="489"/>
      <point x="601" y="567"/>
      <point x="544" y="621" type="curve"/>
      <point x="624" y="754" type="line"/>
    </contour>
    <contour>
      <point x="392" y="607"/>
      <point x="424" y="597"/>
      <point x="454" y="577" type="curve"/>
      <point x="197" y="147" type="line"/>
      <point x="172" y="182"/>
      <point x="159" y="233"/>
      <point x="159" y="298" type="curve" smooth="yes"/>
      <point x="159" y="388" type="line" smooth="yes"/>
      <point x="159" y="527"/>
      <point x="216" y="607"/>
      <point x="357" y="607" type="curve" smooth="yes"/>
    </contour>
    <contour>
      <point x="519" y="499"/>
      <point x="531" y="449"/>
      <point x="531" y="388" type="curve" smooth="yes"/>
      <point x="531" y="298" type="line" smooth="yes"/>
      <point x="531" y="158"/>
      <point x="472" y="79"/>
      <point x="333" y="79" type="curve" smooth="yes"/>
      <point x="298" y="79"/>
      <point x="266" y="89"/>
      <point x="237" y="108" type="curve"/>
      <point x="494" y="537" type="line"/>
    </contour>
    <contour>
      <point x="345" y="686" type="move" name="top"/>
    </contour>
  </outline>
</glyph>
<glyph name="Ucircumflex" format="1">
  <advance width="680"/>
  <unicode hex="00DB"/>
  <outline>
    <contour>
      <point x="496" y="686" type="line"/>
      <point x="496" y="221" type="line" smooth="yes"/>
      <point x="496" y="137"/>
      <point x="437" y="79"/>
      <point x="342" y="79" type="curve" smooth="yes"/>
      <point x="251" y="79"/>
      <point x="184" y="135"/>
      <point x="184" y="221" type="curve" smooth="yes"/>
      <point x="184" y="686" type="line"/>
      <point x="86" y="686" type="line"/>
      <point x="86" y="219" type="line" smooth="yes"/>
      <point x="86" y="79"/>
      <point x="185" y="-10"/>
      <point x="333" y="-10" type="curve" smooth="yes"/>
      <point x="346" y="-10" type="line" smooth="yes"/>
      <point x="496" y="-10"/>
      <point x="594" y="81"/>
      <point x="594" y="219" type="curve" smooth="yes"/>
      <point x="594" y="686" type="line"/>
    </contour>
    <contour>
      <point x="301" y="895" type="line"/>
      <point x="165" y="750" type="line"/>
      <point x="245" y="750" type="line"/>
      <point x="340" y="839" type="line"/>
      <point x="434" y="750" type="line"/>
      <point x="514" y="750" type="line"/>
      <point x="379" y="895" type="line"/>
    </contour>
  </outline>
</glyph>
<glyph name="Yacute" format="1">
  <advance width="572"/>
  <unicode hex="00DD"/>
  <outline>
    <contour>
      <point x="475" y="686" type="line"/>
      <point x="294" y="367" type="line"/>
      <point x="290" y="367" type="line"/>
      <point x="107" y="686" type="line"/>
      <point x="-5" y="686" type="line"/>
      <point x="237" y="265" type="line"/>
      <point x="237" y="0" type="line"/>
      <point x="335" y="0" type="line"/>
      <point x="335" y="265" type="line"/>
      <point x="576" y="686" type="line"/>
    </contour>
    <contour>
      <point x="353" y="895" type="line"/>
      <point x="259" y="750" type="line"/>
      <point x="328" y="750" type="line"/>
      <point x="444" y="892" type="line"/>
      <point x="443" y="895" type="line"/>
    </contour>
  </outline>
</glyph>
<glyph name="Thorn" format="1">
  <advance width="633"/>
  <unicode hex="00DE"/>
  <outline>
    <contour>
      <point x="92" y="686" type="line"/>
      <point x="92" y="0" type="line"/>
      <point x="190" y="0" type="line"/>
      <point x="190" y="162" type="line"/>
      <point x="388" y="162" type="line" smooth="yes"/>
      <point x="506" y="162"/>
      <point x="593" y="246"/>
      <point x="593" y="362" type="curve" smooth="yes"/>
      <point x="593" y="478"/>
      <point x="506" y="562"/>
      <point x="388" y="562" type="curve" smooth="yes"/>
      <point x="190" y="562" type="line"/>
      <point x="190" y="686" type="line"/>
    </contour>
    <contour>
      <point x="441" y="473"/>
      <point x="495" y="425"/>
      <point x="495" y="362" type="curve" smooth="yes"/>
      <point x="495" y="299"/>
      <point x="440" y="251"/>
      <point x="379" y="251" type="curve" smooth="yes"/>
      <point x="190" y="251" type="line"/>
      <point x="190" y="473" type="line"/>
      <point x="379" y="473" type="line" smooth="yes"/>
    </contour>
  </outline>
</glyph>
<glyph name="acircumflex" format="1">
  <advance width="585"/>
  <unicode hex="00E2"/>
  <outline>
    <contour>
      <point x="275" y="521" type="line" smooth="yes"/>
      <point x="156" y="521"/>
      <point x="65" y="458"/>
      <point x="65" y="387" type="curve" smooth="yes"/>
      <point x="65" y="372"/>
      <point x="66" y="361"/>
      <point x="67" y="354" type="curve"/>
      <point x="159" y="354" type="line"/>
      <point x="159" y="366" type="line" smooth="yes"/>
      <point x="159" y="417"/>
      <point x="201" y="446"/>
      <point x="273" y="446" type="curve" smooth="yes"/>
      <point x="344" y="446"/>
      <point x="390" y="425"/>
      <point x="390" y="354" type="curve" smooth="yes"/>
      <point x="390" y="307" type="line"/>
      <point x="133" y="307"/>
      <point x="48" y="263"/>
      <point x="48" y="142" type="curve" smooth="yes"/>
      <point x="48" y="35"/>
      <point x="105" y="-10"/>
      <point x="215" y="-10" type="curve" smooth="yes"/>
      <point x="294" y="-10"/>
      <point x="353" y="21"/>
      <point x="394" y="82" type="curve"/>
      <point x="397" y="29"/>
      <point x="421" y="-10"/>
      <point x="481" y="-10" type="curve" smooth="yes"/>
      <point x="510" y="-10"/>
      <point x="536" y="-3"/>
      <point x="558" y="10" type="curve"/>
      <point x="558" y="79" type="line"/>
      <point x="543" y="70"/>
      <point x="528" y="65"/>
      <point x="512" y="65" type="curve" smooth="yes"/>
      <point x="497" y="65"/>
      <point x="484" y="75"/>
      <point x="484" y="100" type="curve" smooth="yes"/>
      <point x="484" y="365" type="line" smooth="yes"/>
      <point x="484" y="465"/>
      <point x="420" y="521"/>
      <point x="284" y="521" type="curve" smooth="yes"/>
    </contour>
    <contour>
      <point x="390" y="214" type="line" smooth="yes"/>
      <point x="390" y="122"/>
      <point x="321" y="65"/>
      <point x="247" y="65" type="curve" smooth="yes"/>
      <point x="177" y="65"/>
      <point x="142" y="88"/>
      <point x="142" y="134" type="curve" smooth="yes"/>
      <point x="142" y="202"/>
      <point x="175" y="234"/>
      <point x="390" y="234" type="curve"/>
    </contour>
    <contour>
      <point x="239" y="720" type="line"/>
      <point x="103" y="575" type="line"/>
      <point x="183" y="575" type="line"/>
      <point x="278" y="664" type="line"/>
      <point x="372" y="575" type="line"/>
      <point x="452" y="575" type="line"/>
      <point x="317" y="720" type="line"/>
    </contour>
  </outline>
</glyph>
<glyph name="igrave" format="1">
  <advance width="260"/>
  <unicode hex="00EC"/>
  <outline>
    <contour>
      <point x="83" y="511" type="line"/>
      <point x="83" y="0" type="line"/>
      <point x="177" y="0" type="line"/>
      <point x="177" y="511" type="line"/>
    </contour>
    <contour>
      <point x="-8" y="720" type="line"/>
      <point x="-9" y="717" type="line"/>
      <point x="106" y="575" type="line"/>
      <point x="176" y="575" type="line"/>
      <point x="83" y="720" type="line"/>
    </contour>
  </outline>
</glyph>
<glyph name="iacute" format="1">
  <advance width="260"/>
  <unicode hex="00ED"/>
  <outline>
    <contour>
      <point x="83" y="511" type="line"/>
      <point x="83" y="0" type="line"/>
      <point x="177" y="0" type="line"/>
      <point x="177" y="511" type="line"/>
    </contour>
    <contour>
      <point x="179" y="720" type="line"/>
      <point x="85" y="575" type="line"/>
      <point x="154" y="575" type="line"/>
      <point x="270" y="717" type="line"/>
      <point x="269" y="720" type="line"/>
    </contour>
  </outline>
</glyph>
<glyph name="eth" format="1">
  <advance width="575"/>
  <unicode hex="00F0"/>
  <outline>
    <contour>
      <point x="114" y="700" type="line"/>
      <point x="135" y="685"/>
      <point x="172" y="666"/>
      <point x="203" y="639" type="curve"/>
      <point x="109" y="595" type="line"/>
      <point x="121" y="584"/>
      <point x="132" y="573"/>
      <point x="145" y="562" type="curve"/>
      <point x="236" y="605" type="line"/>
      <point x="267" y="576"/>
      <point x="295" y="547"/>
      <point x="319" y="518" type="curve"/>
      <point x="308" y="520"/>
      <point x="297" y="521"/>
      <point x="287" y="521" type="curve" smooth="yes"/>
      <point x="145" y="521"/>
      <point x="52" y="429"/>
      <point x="52" y="274" type="curve" smooth="yes"/>
      <point x="52" y="237" type="line" smooth="yes"/>
      <point x="52" y="84"/>
      <point x="142" y="-10"/>
      <point x="287" y="-10" type="curve" smooth="yes"/>
      <point x="432" y="-10"/>
      <point x="522" y="84"/>
      <point x="522" y="237" type="curve" smooth="yes"/>
      <point x="522" y="274" type="line" smooth="yes"/>
      <point x="522" y="408"/>
      <point x="443" y="531"/>
      <point x="307" y="643" type="curve"/>
      <point x="394" y="683" type="line"/>
      <point x="362" y="717" type="line"/>
      <point x="268" y="673" type="line"/>
      <point x="235" y="695"/>
      <point x="203" y="714"/>
      <point x="173" y="729" type="curve"/>
    </contour>
    <contour>
      <point x="378" y="446"/>
      <point x="428" y="380"/>
      <point x="428" y="265" type="curve" smooth="yes"/>
      <point x="428" y="246" type="line" smooth="yes"/>
      <point x="428" y="126"/>
      <point x="374" y="65"/>
      <point x="287" y="65" type="curve" smooth="yes"/>
      <point x="196" y="65"/>
      <point x="146" y="131"/>
      <point x="146" y="246" type="curve" smooth="yes"/>
      <point x="146" y="265" type="line" smooth="yes"/>
      <point x="146" y="385"/>
      <point x="199" y="446"/>
      <point x="287" y="446" type="curve" smooth="yes"/>
    </contour>
  </outline>
</glyph>
<glyph name="oslash" format="1">
  <advance width="574"/>
  <unicode hex="00F8"/>
  <outline>
    <contour>
      <point x="452" y="568" type="line"/>
      <point x="406" y="494" type="line"/>
      <point x="371" y="512"/>
      <point x="331" y="521"/>
      <point x="287" y="521" type="curve" smooth="yes"/>
      <point x="145" y="521"/>
      <point x="52" y="429"/>
      <point x="52" y="274" type="curve" smooth="yes"/>
      <point x="52" y="237" type="line" smooth="yes"/>
      <point x="52" y="153"/>
      <point x="77" y="89"/>
      <point x="126" y="45" type="curve"/>
      <point x="63" y="-55" type="line"/>
      <point x="122" y="-55" type="line"/>
      <point x="167" y="17" type="line"/>
      <point x="202" y="-1"/>
      <point x="242" y="-10"/>
      <point x="287" y="-10" type="curve" smooth="yes"/>
      <point x="432" y="-10"/>
      <point x="522" y="84"/>
      <point x="522" y="237" type="curve" smooth="yes"/>
      <point x="522" y="274" type="line" smooth="yes"/>
      <point x="522" y="358"/>
      <point x="497" y="422"/>
      <point x="447" y="466" type="curve"/>
      <point x="511" y="568" type="line"/>
    </contour>
    <contour>
      <point x="318" y="446"/>
      <point x="341" y="439"/>
      <point x="363" y="425" type="curve"/>
      <point x="175" y="124" type="line"/>
      <point x="156" y="155"/>
      <point x="146" y="195"/>
      <point x="146" y="246" type="curve" smooth="yes"/>
      <point x="146" y="265" type="line" smooth="yes"/>
      <point x="146" y="381"/>
      <point x="195" y="446"/>
      <point x="294" y="446" type="curve" smooth="yes"/>
    </contour>
    <contour>
      <point x="418" y="357"/>
      <point x="428" y="316"/>
      <point x="428" y="265" type="curve" smooth="yes"/>
      <point x="428" y="246" type="line" smooth="yes"/>
      <point x="428" y="130"/>
      <point x="380" y="65"/>
      <point x="279" y="65" type="curve" smooth="yes"/>
      <point x="254" y="65"/>
      <point x="231" y="72"/>
      <point x="210" y="86" type="curve"/>
      <point x="398" y="388" type="line"/>
    </contour>
    <contour>
      <point x="287" y="511" type="move" name="top"/>
    </contour>
  </outline>
</glyph>
<glyph name="yacute" format="1">
  <advance width="512"/>
  <unicode hex="00FD"/>
  <outline>
    <contour>
      <point x="408" y="511" type="line"/>
      <point x="263" y="134" type="line"/>
      <point x="259" y="134" type="line"/>
      <point x="112" y="511" type="line"/>
      <point x="12" y="511" type="line"/>
      <point x="211" y="5" type="line"/>
      <point x="187" y="-72"/>
      <point x="153" y="-109"/>
      <point x="97" y="-109" type="curve" smooth="yes"/>
      <point x="84" y="-109"/>
      <point x="68" y="-104"/>
      <point x="47" y="-95" type="curve"/>
      <point x="47" y="-172" type="line"/>
      <point x="68" y="-181"/>
      <point x="91" y="-186"/>
      <point x="117" y="-186" type="curve" smooth="yes"/>
      <point x="193" y="-186"/>
      <point x="240" y="-151"/>
      <point x="309" y="20" type="curve"/>
      <point x="500" y="511" type="line"/>
    </contour>
    <contour>
      <point x="316" y="720" type="line"/>
      <point x="222" y="575" type="line"/>
      <point x="291" y="575" type="line"/>
      <point x="407" y="717" type="line"/>
      <point x="406" y="720" type="line"/>
    </contour>
  </outline>
</glyph>
<glyph name="thorn" format="1">
  <advance width="583"/>
  <unicode hex="00FE"/>
  <outline>
    <contour>
      <point x="83" y="720" type="line"/>
      <point x="83" y="-181" type="line"/>
      <point x="177" y="-181" type="line"/>
      <point x="177" y="65" type="line"/>
      <point x="212" y="15"/>
      <point x="261" y="-10"/>
      <point x="324" y="-10" type="curve" smooth="yes"/>
      <point x="456" y="-10"/>
      <point x="531" y="89"/>
      <point x="531" y="244" type="curve" smooth="yes"/>
      <point x="531" y="255" type="line" smooth="yes"/>
      <point x="531" y="421"/>
      <point x="453" y="521"/>
      <point x="324" y="521" type="curve" smooth="yes"/>
      <point x="262" y="521"/>
      <point x="213" y="499"/>
      <point x="177" y="455" type="curve"/>
      <point x="177" y="720" type="line"/>
    </contour>
    <contour>
      <point x="392" y="446"/>
      <point x="437" y="388"/>
      <point x="437" y="256" type="curve" smooth="yes"/>
      <point x="437" y="126"/>
      <point x="395" y="65"/>
      <point x="307" y="65" type="curve" smooth="yes"/>
      <point x="219" y="65"/>
      <point x="176" y="124"/>
      <point x="176" y="256" type="curve" smooth="yes"/>
      <point x="176" y="383"/>
      <point x="216" y="446"/>
      <point x="307" y="446" type="curve" smooth="yes"/>
    </contour>
  </outline>
</glyph>
<glyph name="lslash" format="1">
  <advance width="298"/>
  <unicode hex="0142"/>
  <outline>
    <contour>
      <point x="102" y="720" type="line"/>
      <point x="102" y="392" type="line"/>
      <point x="20" y="351" type="line"/>
      <point x="20" y="281" type="line"/>
      <point x="102" y="322" type="line"/>
      <point x="102" y="0" type="line"/>
      <point x="196" y="0" type="line"/>
      <point x="196" y="370" type="line"/>
      <point x="278" y="411" type="line"/>
      <point x="278" y="481" type="line"/>
      <point x="196" y="440" type="line"/>
      <point x="196" y="720" type="line"/>
    </contour>
  </outline>
</glyph>
<glyph name="dotaccent" format="1">
  <advance width="280"/>
  <unicode hex="02D9"/>
  <outline>
    <contour>
      <point x="103" y="736"/>
      <point x="74" y="707"/>
      <point x="74" y="671" type="curve" smooth="yes"/>
      <point x="74" y="634"/>
      <point x="104" y="604"/>
      <point x="140" y="604" type="curve" smooth="yes"/>
      <point x="176" y="604"/>
      <point x="206" y="632"/>
      <point x="206" y="669" type="curve" smooth="yes"/>
      <point x="206" y="706"/>
      <point x="177" y="736"/>
      <point x="140" y="736" type="curve" smooth="yes"/>
    </contour>
    <contour>
      <point x="140" y="511" type="move" name="_top"/>
    </contour>
  </outline>
</glyph>
<glyph name="tilde" format="1">
  <advance width="364"/>
  <unicode hex="02DC"/>
  <outline>
    <contour>
      <point x="335" y="717" type="line"/>
      <point x="328" y="694"/>
      <point x="309" y="682"/>
      <point x="280" y="682" type="curve" smooth="yes"/>
      <point x="263" y="682"/>
      <point x="237" y="688"/>
      <point x="200" y="700" type="curve" smooth="yes"/>
      <point x="172" y="708"/>
      <point x="144" y="717"/>
      <point x="110" y="717" type="curve" smooth="yes"/>
      <point x="38" y="717"/>
      <point x="-1" y="665"/>
      <point x="-1" y="613" type="curve"/>
      <point x="49" y="613" type="line"/>
      <point x="56" y="636"/>
      <point x="74" y="647"/>
      <point x="104" y="647" type="curve" smooth="yes"/>
      <point x="133" y="647"/>
      <point x="148" y="640"/>
      <point x="203" y="624" type="curve" smooth="yes"/>
      <point x="229" y="616"/>
      <point x="253" y="613"/>
      <point x="273" y="613" type="curve" smooth="yes"/>
      <point x="340" y="613"/>
      <point x="385" y="658"/>
      <point x="385" y="717" type="curve"/>
    </contour>
    <contour>
      <point x="192" y="511" type="move" name="_top"/>
    </contour>
  </outline>
</glyph>
<glyph name="Omega" format="1">
  <advance width="699"/>
  <unicode hex="03A9"/>
  <outline>
    <contour>
      <point x="342" y="695" type="line" smooth="yes"/>
      <point x="169" y="695"/>
      <point x="67" y="579"/>
      <point x="67" y="370" type="curve" smooth="yes"/>
      <point x="67" y="345" type="line" smooth="yes"/>
      <point x="67" y="224"/>
      <point x="100" y="135"/>
      <point x="165" y="80" type="curve"/>
      <point x="132" y="84"/>
      <point x="107" y="86"/>
      <point x="80" y="90" type="curve"/>
      <point x="45" y="90" type="line"/>
      <point x="45" y="0" type="line"/>
      <point x="309" y="0" type="line"/>
      <point x="309" y="49" type="line"/>
      <point x="216" y="69"/>
      <point x="171" y="137"/>
      <point x="171" y="297" type="curve" smooth="yes"/>
      <point x="171" y="375" type="line" smooth="yes"/>
      <point x="171" y="540"/>
      <point x="233" y="608"/>
      <point x="349" y="608" type="curve" smooth="yes"/>
      <point x="470" y="608"/>
      <point x="531" y="542"/>
      <point x="531" y="375" type="curve" smooth="yes"/>
      <point x="531" y="297" type="line" smooth="yes"/>
      <point x="531" y="134"/>
      <point x="484" y="66"/>
      <point x="391" y="49" type="curve"/>
      <point x="391" y="0" type="line"/>
      <point x="655" y="0" type="line"/>
      <point x="655" y="90" type="line"/>
      <point x="620" y="90" type="line"/>
      <point x="592" y="86"/>
      <point x="564" y="83"/>
      <point x="536" y="80" type="curve"/>
      <point x="602" y="139"/>
      <point x="635" y="224"/>
      <point x="635" y="337" type="curve" smooth="yes"/>
      <point x="635" y="370" type="line" smooth="yes"/>
      <point x="635" y="588"/>
      <point x="527" y="695"/>
      <point x="359" y="695" type="curve" smooth="yes"/>
    </contour>
    <contour>
      <point x="20" y="686" type="move" name="topleft"/>
    </contour>
  </outline>
</glyph>
<glyph name="quotedblbase" format="1">
  <advance width="380"/>
  <unicode hex="201E"/>
  <outline>
    <contour>
      <point x="211" y="111" type="line"/>
      <point x="211" y="0" type="line"/>
      <point x="252" y="0" type="line"/>
      <point x="225" y="-124" type="line"/>
      <point x="277" y="-124" type="line"/>
      <point x="312" y="26" type="line"/>
      <point x="312" y="111" type="line"/>
    </contour>
    <contour>
      <point x="69" y="111" type="line"/>
      <point x="69" y="0" type="line"/>
      <point x="110" y="0" type="line"/>
      <point x="83" y="-124" type="line"/>
      <point x="135" y="-124" type="line"/>
      <point x="170" y="26" type="line"/>
      <point x="170" y="111" type="line"/>
    </contour>
  </outline>
</glyph>
<glyph name="dagger" format="1">
  <advance width="510"/>
  <unicode hex="2020"/>
  <outline>
    <contour>
      <point x="211" y="686" type="line"/>
      <point x="228" y="493" type="line"/>
      <point x="23" y="510" type="line"/>
      <point x="23" y="417" type="line"/>
      <point x="228" y="435" type="line"/>
      <point x="228" y="-170" type="line"/>
      <point x="302" y="-170" type="line"/>
      <point x="302" y="435" type="line"/>
      <point x="487" y="417" type="line"/>
      <point x="487" y="510" type="line"/>
      <point x="282" y="493" type="line"/>
      <point x="299" y="686" type="line"/>
    </contour>
  </outline>
</glyph>
<glyph name="guilsinglleft" format="1">
  <advance width="278"/>
  <unicode hex="2039"/>
  <outline>
    <contour>
      <point x="171" y="511" type="line"/>
      <point x="49" y="337" type="line"/>
      <point x="171" y="163" type="line"/>
      <point x="222" y="163" type="line"/>
      <point x="128" y="337" type="line"/>
      <point x="222" y="511" type="line"/>
    </contour>
  </outline>
</glyph>
<glyph name="Euro" format="1">
  <advance width="562"/>
  <unicode hex="20AC"/>
  <outline>
    <contour>
      <point x="278" y="693"/>
      <point x="162" y="591"/>
      <point x="129" y="441" type="curve"/>
      <point x="30" y="441" type="line"/>
      <point x="30" y="377" type="line"/>
      <point x="120" y="377" type="line"/>
      <point x="119" y="371"/>
      <point x="119" y="365"/>
      <point x="119" y="360" type="curve" smooth="yes"/>
      <point x="119" y="322" type="line" smooth="yes"/>
      <point x="119" y="315"/>
      <point x="119" y="309"/>
      <point x="120" y="303" type="curve"/>
      <point x="30" y="303" type="line"/>
      <point x="30" y="238" type="line"/>
      <point x="130" y="238" type="line"/>
      <point x="163" y="93"/>
      <point x="280" y="-8"/>
      <point x="430" y="-8" type="curve" smooth="yes"/>
      <point x="464" y="-8"/>
      <point x="496" y="-5"/>
      <point x="525" y="2" type="curve"/>
      <point x="525" y="93" type="line"/>
      <point x="496" y="84"/>
      <point x="472" y="80"/>
      <point x="453" y="80" type="curve" smooth="yes"/>
      <point x="345" y="80"/>
      <point x="262" y="139"/>
      <point x="230" y="238" type="curve"/>
      <point x="426" y="238" type="line"/>
      <point x="426" y="303" type="line"/>
      <point x="216" y="303" type="line"/>
      <point x="215" y="309"/>
      <point x="214" y="315"/>
      <point x="214" y="322" type="curve" smooth="yes"/>
      <point x="214" y="360" type="line" smooth="yes"/>
      <point x="214" y="366"/>
      <point x="215" y="372"/>
      <point x="216" y="377" type="curve"/>
      <point x="426" y="377" type="line"/>
      <point x="426" y="441" type="line"/>
      <point x="228" y="441" type="line"/>
      <point x="257" y="540"/>
      <point x="338" y="604"/>
      <point x="446" y="604" type="curve" smooth="yes"/>
      <point x="476" y="604"/>
      <point x="502" y="601"/>
      <point x="525" y="594" type="curve"/>
      <point x="525" y="685" type="line"/>
      <point x="490" y="690"/>
      <point x="460" y="693"/>
      <point x="437" y="693" type="curve" smooth="yes"/>
    </contour>
  </outline>
</glyph>
<glyph name="uni2113" format="1">
  <advance width="499"/>
  <unicode hex="2113"/>
  <outline>
    <contour>
      <point x="184" y="230" type="line"/>
      <point x="337" y="230"/>
      <point x="439" y="315"/>
      <point x="439" y="479" type="curve" smooth="yes"/>
      <point x="439" y="508" type="line" smooth="yes"/>
      <point x="439" y="628"/>
      <point x="369" y="696"/>
      <point x="265" y="696" type="curve" smooth="yes"/>
      <point x="165" y="696"/>
      <point x="99" y="633"/>
      <point x="99" y="511" type="curve" smooth="yes"/>
      <point x="99" y="400" type="line"/>
      <point x="193" y="400" type="line"/>
      <point x="193" y="511" type="line" smooth="yes"/>
      <point x="193" y="580"/>
      <point x="227" y="614"/>
      <point x="275" y="614" type="curve" smooth="yes"/>
      <point x="325" y="614"/>
      <point x="360" y="577"/>
      <point x="360" y="506" type="curve" smooth="yes"/>
      <point x="360" y="479" type="line" smooth="yes"/>
      <point x="360" y="369"/>
      <point x="297" y="305"/>
      <point x="184" y="305" type="curve"/>
    </contour>
    <contour>
      <point x="31" y="230" type="line"/>
      <point x="152" y="230" type="line"/>
      <point x="152" y="305" type="line"/>
      <point x="31" y="305" type="line"/>
    </contour>
    <contour>
      <point x="99" y="449" type="line"/>
      <point x="99" y="176" type="line" smooth="yes"/>
      <point x="99" y="42"/>
      <point x="158" y="-10"/>
      <point x="273" y="-10" type="curve" smooth="yes"/>
      <point x="312" y="-10"/>
      <point x="352" y="-4"/>
      <point x="382" y="8" type="curve"/>
      <point x="382" y="78" type="line"/>
      <point x="348" y="68"/>
      <point x="318" y="63"/>
      <point x="292" y="63" type="curve" smooth="yes"/>
      <point x="226" y="63"/>
      <point x="193" y="95"/>
      <point x="193" y="171" type="curve" smooth="yes"/>
      <point x="193" y="449" type="line"/>
    </contour>
  </outline>
</glyph>
<glyph name="estimated" format="1">
  <advance width="749"/>
  <unicode hex="212E"/>
  <outline>
    <contour>
      <point x="108" y="150" type="line"/>
      <point x="194" y="70" type="line"/>
      <point x="194" y="599" type="line"/>
      <point x="108" y="539" type="line"/>
    </contour>
    <contour>
      <point x="553" y="599" type="line"/>
      <point x="553" y="348" type="line"/>
      <point x="642" y="348" type="line"/>
      <point x="642" y="539" type="line"/>
    </contour>
    <contour>
      <point x="97" y="316" type="line"/>
      <point x="657" y="316" type="line"/>
      <point x="657" y="371" type="line"/>
      <point x="97" y="371" type="line"/>
    </contour>
    <contour>
      <point x="679" y="316" type="line"/>
      <point x="679" y="368" type="line" smooth="yes"/>
      <point x="679" y="573"/>
      <point x="557" y="696"/>
      <point x="375" y="696" type="curve" smooth="yes"/>
      <point x="193" y="696"/>
      <point x="71" y="573"/>
      <point x="71" y="367" type="curve" smooth="yes"/>
      <point x="71" y="319" type="line" smooth="yes"/>
      <point x="71" y="113"/>
      <point x="192" y="-10"/>
      <point x="377" y="-10" type="curve" smooth="yes"/>
      <point x="490" y="-10"/>
      <point x="582" y="36"/>
      <point x="636" y="120" type="curve"/>
      <point x="579" y="156" type="line"/>
      <point x="538" y="83"/>
      <point x="458" y="50"/>
      <point x="377" y="50" type="curve" smooth="yes"/>
      <point x="244" y="50"/>
      <point x="151" y="140"/>
      <point x="151" y="319" type="curve" smooth="yes"/>
      <point x="151" y="367" type="line" smooth="yes"/>
      <point x="151" y="546"/>
      <point x="243" y="636"/>
      <point x="375" y="636" type="curve" smooth="yes"/>
      <point x="507" y="636"/>
      <point x="599" y="546"/>
      <point x="599" y="366" type="curve" smooth="yes"/>
      <point x="599" y="316" type="line"/>
    </contour>
  </outline>
</glyph>
<glyph name="partialdiff" format="1">
  <advance width="565"/>
  <unicode hex="2202"/>
  <outline>
    <contour>
      <point x="172" y="696" type="line"/>
      <point x="172" y="610" type="line"/>
      <point x="270" y="610" type="line" smooth="yes"/>
      <point x="345" y="610"/>
      <point x="405" y="544"/>
      <point x="405" y="477" type="curve" smooth="yes"/>
      <point x="405" y="357" type="line"/>
      <point x="368" y="405"/>
      <point x="305" y="431"/>
      <point x="245" y="431" type="curve" smooth="yes"/>
      <point x="121" y="431"/>
      <point x="28" y="346"/>
      <point x="28" y="218" type="curve" smooth="yes"/>
      <point x="28" y="81"/>
      <point x="126" y="-10"/>
      <point x="260" y="-10" type="curve" smooth="yes"/>
      <point x="268" y="-10" type="line" smooth="yes"/>
      <point x="402" y="-10"/>
      <point x="501" y="86"/>
      <point x="501" y="221" type="curve" smooth="yes"/>
      <point x="501" y="464" type="line" smooth="yes"/>
      <point x="501" y="595"/>
      <point x="406" y="696"/>
      <point x="275" y="696" type="curve" smooth="yes"/>
    </contour>
    <contour>
      <point x="344" y="358"/>
      <point x="405" y="301"/>
      <point x="405" y="225" type="curve" smooth="yes"/>
      <point x="405" y="205" type="line" smooth="yes"/>
      <point x="405" y="129"/>
      <point x="345" y="72"/>
      <point x="265" y="72" type="curve" smooth="yes"/>
      <point x="184" y="72"/>
      <point x="123" y="128"/>
      <point x="123" y="205" type="curve" smooth="yes"/>
      <point x="123" y="225" type="line" smooth="yes"/>
      <point x="123" y="301"/>
      <point x="183" y="358"/>
      <point x="263" y="358" type="curve" smooth="yes"/>
    </contour>
  </outline>
</glyph>
<glyph name="product" format="1">
  <advance width="749"/>
  <unicode hex="220F"/>
  <outline>
    <contour>
      <point x="24" y="708" type="line"/>
      <point x="24" y="611" type="line"/>
      <point x="139" y="611" type="line"/>
      <point x="139" y="-98" type="line"/>
      <point x="241" y="-98" type="line"/>
      <point x="241" y="611" type="line"/>
      <point x="508" y="611" type="line"/>
      <point x="508" y="-98" type="line"/>
      <point x="610" y="-98" type="line"/>
      <point x="610" y="611" type="line"/>
      <point x="725" y="611" type="line"/>
      <point x="725" y="708" type="line"/>
    </contour>
  </outline>
</glyph>
<glyph name="integral" format="1">
  <advance width="267"/>
  <unicode hex="222B"/>
  <outline>
    <contour>
      <point x="146" y="750"/>
      <point x="84" y="713"/>
      <point x="84" y="638" type="curve" smooth="yes"/>
      <point x="84" y="516"/>
      <point x="93" y="256"/>
      <point x="111" y="-142" type="curve"/>
      <point x="111" y="-181"/>
      <point x="68" y="-200"/>
      <point x="26" y="-200" type="curve"/>
      <point x="26" y="-250" type="line"/>
      <point x="130" y="-250"/>
      <point x="183" y="-210"/>
      <point x="183" y="-138" type="curve" smooth="yes"/>
      <point x="183" y="-34"/>
      <point x="174" y="227"/>
      <point x="155" y="644" type="curve"/>
      <point x="155" y="670"/>
      <point x="186" y="701"/>
      <point x="242" y="701" type="curve"/>
      <point x="242" y="750" type="line"/>
    </contour>
  </outline>
</glyph>
<glyph name="approxequal" format="1">
  <advance width="615"/>
  <unicode hex="2248"/>
  <outline>
    <contour>
      <point x="547" y="396"/>
      <point x="480" y="367"/>
      <point x="427" y="367" type="curve" smooth="yes"/>
      <point x="337" y="367"/>
      <point x="273" y="433"/>
      <point x="188" y="433" type="curve" smooth="yes"/>
      <point x="137" y="433"/>
      <point x="72" y="405"/>
      <point x="25" y="355" type="curve"/>
      <point x="25" y="270" type="line"/>
      <point x="72" y="321"/>
      <point x="138" y="348"/>
      <point x="186" y="348" type="curve" smooth="yes"/>
      <point x="279" y="348"/>
      <point x="339" y="282"/>
      <point x="428" y="282" type="curve" smooth="yes"/>
      <point x="490" y="282"/>
      <point x="553" y="320"/>
      <point x="589" y="360" type="curve"/>
      <point x="589" y="445" type="line"/>
    </contour>
    <contour>
      <point x="547" y="187"/>
      <point x="480" y="158"/>
      <point x="427" y="158" type="curve" smooth="yes"/>
      <point x="337" y="158"/>
      <point x="273" y="224"/>
      <point x="188" y="224" type="curve" smooth="yes"/>
      <point x="137" y="224"/>
      <point x="72" y="196"/>
      <point x="25" y="146" type="curve"/>
      <point x="25" y="61" type="line"/>
      <point x="72" y="112"/>
      <point x="138" y="139"/>
      <point x="186" y="139" type="curve" smooth="yes"/>
      <point x="279" y="139"/>
      <point x="339" y="73"/>
      <point x="428" y="73" type="curve" smooth="yes"/>
      <point x="490" y="73"/>
      <point x="553" y="111"/>
      <point x="589" y="151" type="curve"/>
      <point x="589" y="236" type="line"/>
    </contour>
  </outline>
</glyph>
